<?xml version="1.0" standalone="no"?>
<!DOCTYPE svg PUBLIC "-//W3C//DTD SVG 20010904//EN"
 "http://www.w3.org/TR/2001/REC-SVG-20010904/DTD/svg10.dtd">
<svg version="1.0" xmlns="http://www.w3.org/2000/svg"
 width="500.000000pt" height="500.000000pt" viewBox="0 0 500.000000 500.000000"
 preserveAspectRatio="xMidYMid meet">
<metadata>
Created by potrace 1.16, written by Peter Selinger 2001-2019
</metadata>
<g transform="translate(0.000000,500.000000) scale(0.100000,-0.100000)"
fill="#000000" stroke="none">
<path d="M2455 4029 c-49 -6 -128 -9 -173 -7 l-84 3 4 -82 c1 -45 6 -84 9 -87
3 -3 37 1 75 9 128 27 214 17 214 -26 0 -19 -5 -19 -110 -13 l-110 7 0 -69 0
-69 98 7 c106 8 132 4 132 -18 0 -35 -139 -46 -243 -19 -32 8 -62 15 -67 15
-6 0 -10 -54 -10 -127 l0 -128 263 0 c261 0 262 0 306 25 57 32 82 67 88 122
10 86 -40 144 -139 162 -45 8 -57 33 -22 46 14 6 32 10 40 10 33 0 84 30 98
59 35 67 9 138 -63 168 -44 19 -190 24 -306 12z"/>
<path d="M1417 3953 c10 -87 10 -324 0 -430 l-7 -83 169 0 169 0 -6 43 c-21
137 6 178 44 67 37 -105 103 -144 214 -125 49 8 111 59 130 105 12 28 10 143
-2 155 -3 3 -29 -6 -59 -20 -63 -29 -168 -35 -189 -10 -20 24 -2 35 57 35 70
0 137 30 165 74 28 45 21 136 -13 172 -64 69 -145 84 -457 84 l-223 0 8 -67z"/>
<path d="M2908 3988 c4 -18 7 -134 7 -258 0 -124 -3 -240 -7 -257 l-7 -33 189
0 c130 0 190 3 190 11 0 6 -14 43 -31 82 -47 107 -42 110 159 93 l92 -9 0 77
0 76 -130 0 c-118 0 -130 2 -140 19 -13 25 -13 27 6 45 20 20 75 20 184 0 47
-8 99 -18 116 -21 l31 -5 7 68 c4 38 9 86 12 107 l6 37 -346 0 -345 0 7 -32z"/>
</g>
</svg>
