<?xml version="1.0" encoding="UTF-8"?>
<svg id="Layer_1" data-name="Layer 1" xmlns="http://www.w3.org/2000/svg" viewBox="0 0 223.5 65.82">
  <path d="m80.2,12.52c0,11.5.1,12.5,1.8,11.8q5.2-2.2,5.2,5.4v7.1l-4-2-4-2-.1,6.2-.1,6.3-.9-4.9c-1.2-7.1-1.9-7.5-9-3.8-3.9,2-7.5,3.2-9.8,3.1-3.4-.1-3.4-.2,1-.9,8.8-1.5,13.9-5.7,15.9-13,1.9-7-.9-14.3-7-18.5C62.4,2.62,56.1,1.82,26.9,1.82H0l.6,2.4c1.8,7.3,2.6,27.6,1.6,40.9-.6,7.8-1.3,15.2-1.5,16.4l-.5,2.3h39.2l-.6-6.3-.7-6.2,1.9,4c3.6,7.6,8.6,10.5,17.9,10.5,10.2,0,18.1-5.8,20.2-14.6.8-3.3.9-2.6,1,5.3l.1,9.3h25.8c27.5,0,31.3-.5,37.4-4.9,11.3-8,8.2-27.3-4.8-29.7-3.7-.7-4.7-2.4-1.4-2.4,3,0,7.5-2.6,9.9-5.6,2.5-3.2,2.8-11.1.6-15.3-1.9-3.7-8.8-7.1-16-7.8-3.1-.3-13.8,0-23.8.7-12.4.8-19.5.9-22.4.2L80.2.02v12.5Zm59.8-7.4c6,3.2,7.7,12.1,3.3,17.1-2,2.3-7.2,4.6-10.4,4.6-1.4,0-3,.7-3.7,1.5-1.9,2.3.3,4.2,5.6,5,10.4,1.5,14.8,11.6,9.7,21.8-1,1.9-3.4,3.8-7.1,5.5-5.6,2.5-5.9,2.6-31,2.6l-25.3.1.7-12.5c.3-6.9.7-12.6.8-12.7s2.4.5,5.1,1.3c6.4,1.9,20.2,2.3,23.3.5,1.3-.7,2.2-2,2-2.9-.3-1.5-1.7-1.7-11.6-1.4l-11.2.3v-13.2l11,.7c10,.6,11,.5,11.6-1.1,1.2-3.1-2.2-4.5-10.5-4.5-4.2,0-10.2.6-13.3,1.4l-5.8,1.3v-6.7c0-3.8-.3-7.6-.7-8.6-.6-1.5-.1-1.7,4.8-1.2,3,.3,9.2.2,13.9-.2s14.6-.7,22-.6c10.9.1,14.2.5,16.8,1.9Zm-75.6,2.5c6,3,9,7.1,9.5,13.1.9,8.9-6,15-17.8,15.9-5.7.4-6.9.8-6.9,2.2,0,4.7,11.4,5,20.3.6l4.8-2.4,1,2.5c2.3,6.2-.4,16-5.5,20.1-5.3,4.1-16.6,4.7-22.2,1.2-2.8-1.7-5.1-5.8-7-12-1.2-4-1.9-5-3.6-5-2,0-2.1.3-1.5,9l.7,9H3.2l.8-4.8c.9-6.1.9-44.7,0-49l-.8-3.3,28.3.3c27.2.3,28.4.4,32.9,2.6Z"/>
  <path d="m150.9,8.52c1,8.7,1,36.4,0,47l-.8,8.3h42.1v-2.5c0-1.4-1.1-5.2-2.5-8.5-3.2-7.6-3.2-9.4-.2-8.6,1.2.3,7.3.9,13.5,1.2l11.2.7v-19.4l3.4.6,3.3.7.6-5.9c.4-3.2.9-9.1,1.3-13.1l.7-7.2h-73.5l.9,6.7Zm68.8,5.5c-.4,5.1-1,9.6-1.4,10-.3.3-4.9-.2-10.1-1.3-11.8-2.3-21.3-2.5-23-.4-.7.8-1,2.5-.6,4l.6,2.5h26v15l-7.2-.7c-4-.5-10-.8-13.3-.8-5.5,0-6,.2-6.3,2.3-.2,1.2.8,4.7,2.2,7.8,4.5,9.9,5.3,9.4-15.4,9.4h-18l.7-9.8c1-12.4,1-30.6,0-40l-.7-7.2h67.2l-.7,9.2Z"/>
</svg>